<svg width="764" height="655" viewBox="0 0 764 655" fill="none" xmlns="http://www.w3.org/2000/svg">
<mask id="mask0_1052_2" style="mask-type:alpha" maskUnits="userSpaceOnUse" x="260" y="492" width="233" height="63">
<path d="M493 507.398C493 533.688 440.841 555 376.5 555C312.159 555 260 533.688 260 507.398C260 481.108 312.159 496.45 376.5 496.45C440.841 496.45 493 481.108 493 507.398Z" fill="black"/>
</mask>
<g mask="url(#mask0_1052_2)">
<path d="M493 507.398C493 533.688 440.841 555 376.5 555C312.159 555 260 533.688 260 507.398C260 481.108 312.159 496.45 376.5 496.45C440.841 496.45 493 481.108 493 507.398Z" fill="black"/>
<path fill-rule="evenodd" clip-rule="evenodd" d="M497.646 507.444C490.951 507.206 482.962 508.217 473.989 510.439C469.75 511.489 464.747 513.267 460.095 515.376C454.15 518.071 449.901 520.63 441.468 526.594L436.297 530.251L435.347 529.716C430.442 526.956 422.915 524.632 415.886 523.708C408.158 522.692 401.696 522.929 393.164 524.542C387.83 525.55 379.14 528.607 374.002 531.283C371.123 532.782 366.897 535.468 362.685 538.477C355.847 543.362 352.551 546.249 347.191 552.047C345.65 553.714 342.519 557.737 341.296 559.622C339.672 562.124 339.621 562.204 338.867 563.415C337.335 565.873 336.248 567.896 334.45 571.633C333.901 572.773 333.372 573.845 333.273 574.014C333.025 574.442 333.369 574.476 337.494 574.434C339.41 574.415 341.677 574.397 342.531 574.395C343.385 574.392 344.651 574.34 345.345 574.278C346.039 574.216 346.831 574.172 347.106 574.179C347.381 574.187 347.741 574.169 347.906 574.138C348.071 574.107 348.689 574.064 349.279 574.042C349.869 574.021 351.146 573.951 352.116 573.887C353.087 573.824 354.188 573.763 354.563 573.753C355.315 573.733 358.295 574.217 358.72 574.428C358.869 574.502 359.234 574.671 359.533 574.804C360.372 575.178 362.063 576.94 362.49 577.885C362.701 578.353 362.866 578.781 362.857 578.836C362.848 578.892 362.943 579.324 363.068 579.796C363.39 581.012 363.651 582.342 363.599 582.502C363.575 582.577 363.565 582.684 363.578 582.739C363.591 582.795 363.587 583.102 363.569 583.423C363.552 583.744 363.538 584.309 363.54 584.68C363.542 585.051 357.643 621.888 350.432 666.542C337.945 743.862 337.337 747.726 337.672 747.66C338.106 747.573 339.169 747.074 339.613 746.748C339.795 746.614 340.225 746.386 340.568 746.241C340.912 746.095 341.279 745.873 341.385 745.747C341.491 745.621 341.671 745.533 341.786 745.551C342.016 745.588 343.586 744.826 344.409 744.277C344.699 744.083 345.013 743.937 345.107 743.953C345.201 743.968 345.363 743.885 345.467 743.768C345.572 743.651 345.887 743.48 346.169 743.388C346.45 743.296 346.994 743.035 347.377 742.808C347.76 742.58 348.559 742.167 349.151 741.889C349.743 741.611 350.411 741.26 350.635 741.109C350.859 740.959 351.108 740.846 351.189 740.859C351.27 740.872 351.501 740.757 351.702 740.602C352.266 740.169 352.704 739.939 352.903 739.971C353.002 739.988 353.366 739.784 353.71 739.52C354.055 739.255 354.411 739.051 354.501 739.065C354.679 739.094 356.973 737.941 357.727 737.444C357.982 737.276 358.282 737.153 358.392 737.17C358.502 737.188 358.677 737.107 358.781 736.99C358.885 736.874 359.211 736.7 359.506 736.604C359.8 736.508 360.274 736.275 360.559 736.087C360.844 735.898 361.549 735.524 362.126 735.256C362.703 734.987 363.261 734.666 363.366 734.542C363.471 734.419 363.637 734.33 363.735 734.346C363.893 734.372 364.331 734.155 365.068 733.686C365.203 733.6 365.567 733.462 365.877 733.381C366.186 733.3 366.509 733.113 366.595 732.966C366.68 732.819 366.86 732.716 366.994 732.737C367.128 732.759 367.541 732.572 367.913 732.323C368.284 732.073 368.582 731.906 368.575 731.952C368.568 731.998 368.683 731.963 368.83 731.873C368.978 731.784 369.389 731.536 369.743 731.322C370.098 731.108 370.712 730.82 371.108 730.681C371.503 730.543 372.137 730.236 372.515 729.999C373.65 729.287 374.543 728.829 375.163 728.643C375.485 728.546 375.859 728.322 375.993 728.146C376.128 727.97 376.325 727.84 376.432 727.857C376.647 727.892 378.137 727.151 378.274 726.942C378.321 726.869 378.46 726.826 378.582 726.846C378.705 726.866 379.048 726.723 379.344 726.53C379.641 726.336 380.847 725.703 382.025 725.123C383.202 724.542 384.316 723.959 384.499 723.827C384.683 723.694 384.885 723.594 384.949 723.604C385.013 723.615 385.182 723.554 385.324 723.469C385.467 723.383 385.964 723.117 386.43 722.875C386.896 722.634 387.432 722.329 387.623 722.197C387.813 722.065 388.039 721.969 388.125 721.982C388.264 722.005 390.484 720.904 390.762 720.674C391.012 720.467 393.256 719.318 393.373 719.337C393.443 719.348 393.805 719.147 394.178 718.89C394.55 718.633 395.024 718.398 395.23 718.368C395.436 718.337 395.617 718.233 395.633 718.136C395.648 718.039 395.768 717.977 395.899 717.998C396.03 718.019 396.401 717.861 396.724 717.646C397.046 717.431 397.394 717.269 397.497 717.286C397.601 717.302 397.77 717.221 397.875 717.104C397.979 716.987 398.214 716.829 398.397 716.752C399.328 716.36 400.413 715.817 400.802 715.55C401.042 715.385 401.396 715.217 401.59 715.177C401.783 715.137 401.956 715.011 401.974 714.898C401.992 714.785 402.074 714.749 402.155 714.819C402.236 714.89 402.485 714.801 402.707 714.623C402.93 714.444 403.445 714.167 403.851 714.006C404.257 713.845 404.69 713.634 404.813 713.536C404.935 713.438 405.556 713.115 406.192 712.817C406.829 712.52 407.615 712.099 407.939 711.883C408.264 711.667 408.575 711.502 408.631 711.517C408.768 711.553 410.288 710.752 410.396 710.587C410.444 710.514 410.587 710.472 410.715 710.493C410.843 710.513 411.232 710.315 411.58 710.052C411.928 709.789 412.246 709.621 412.287 709.678C412.328 709.735 412.549 709.625 412.777 709.434C413.006 709.243 413.183 709.164 413.171 709.258C413.159 709.353 413.28 709.306 413.44 709.153C413.6 709.001 414.345 708.594 415.095 708.249C415.846 707.904 416.599 707.536 416.769 707.431C416.939 707.326 417.886 706.835 418.872 706.341C419.859 705.847 420.706 705.376 420.754 705.294C420.803 705.212 421.134 705.06 421.49 704.956C421.846 704.853 422.403 704.591 422.728 704.374C423.053 704.158 423.347 704.009 423.381 704.043C423.415 704.078 423.869 703.847 424.389 703.532C424.909 703.216 425.441 702.974 425.571 702.995C425.701 703.015 425.818 702.965 425.831 702.884C425.845 702.802 426.158 702.621 426.527 702.481C426.896 702.34 427.358 702.112 427.553 701.974C427.747 701.835 428.115 701.624 428.369 701.505C430.196 700.651 432.119 699.634 432.371 699.388C432.536 699.227 432.795 699.115 432.945 699.139C433.095 699.163 433.231 699.102 433.247 699.003C433.263 698.904 433.596 698.729 433.988 698.615C434.38 698.501 434.711 698.341 434.724 698.259C434.749 698.109 436.005 697.534 436.662 697.373C436.856 697.325 437.027 697.214 437.041 697.125C437.055 697.037 437.428 696.832 437.87 696.67C438.312 696.507 438.749 696.244 438.842 696.084C438.935 695.924 439.051 695.849 439.1 695.917C439.149 695.985 439.682 695.778 440.285 695.458C440.888 695.137 441.52 694.897 441.691 694.924C442.017 694.976 443.805 696.714 444.16 697.326C444.275 697.523 444.472 697.701 444.599 697.722C444.727 697.742 444.957 697.954 445.112 698.193C445.266 698.431 445.464 698.638 445.552 698.652C445.64 698.666 446.211 699.237 446.82 699.921C447.43 700.604 448.016 701.179 448.123 701.198C448.229 701.218 448.433 701.405 448.575 701.615C448.91 702.108 449.162 702.386 449.781 702.937C450.058 703.184 450.32 703.442 450.362 703.511C450.404 703.579 450.707 703.867 451.035 704.15C451.362 704.433 451.826 704.897 452.064 705.179C452.783 706.032 453.101 706.358 453.628 706.785C453.905 707.009 454.614 707.715 455.204 708.354C458.025 711.41 458.402 711.791 458.644 711.83C458.786 711.853 458.892 711.942 458.878 712.027C458.852 712.187 460.134 713.429 460.362 713.466C460.432 713.477 460.567 713.674 460.664 713.903C460.76 714.132 460.945 714.336 461.075 714.357C461.205 714.378 461.39 714.583 461.486 714.812C461.583 715.041 461.776 715.247 461.916 715.27C462.055 715.292 462.361 715.556 462.595 715.855C462.829 716.155 463.031 716.34 463.045 716.267C463.058 716.195 463.117 716.246 463.175 716.38C463.269 716.6 464.877 718.29 465.865 719.207C466.074 719.401 466.401 719.739 466.592 719.957C466.783 720.176 467.879 721.29 469.028 722.432C470.177 723.574 471.303 724.711 471.53 724.959C471.756 725.206 472.468 725.932 473.111 726.572C473.755 727.212 474.494 727.97 474.755 728.255C475.016 728.54 475.425 728.937 475.665 729.136C475.904 729.334 476.219 729.653 476.364 729.845C476.509 730.036 477.135 730.658 477.756 731.227C478.376 731.795 478.873 732.328 478.86 732.41C478.847 732.492 478.954 732.578 479.099 732.602C479.244 732.625 479.391 732.78 479.425 732.945C479.46 733.111 479.618 733.268 479.778 733.294C479.937 733.319 480.053 733.425 480.037 733.529C480.02 733.633 480.136 733.74 480.296 733.765C480.455 733.791 480.613 733.944 480.646 734.106C480.68 734.267 480.848 734.47 481.018 734.556C481.189 734.642 481.468 734.889 481.639 735.104C482.359 736.012 483.969 737.658 484.167 737.69C484.286 737.709 484.431 737.858 484.49 738.02C484.549 738.182 484.662 738.329 484.741 738.347C484.821 738.365 484.976 738.486 485.086 738.616C485.65 739.28 487.248 740.905 487.353 740.922C487.42 740.933 487.655 741.169 487.876 741.446C488.372 742.071 489.952 743.671 490.094 743.694C490.152 743.703 490.437 744.011 490.728 744.378C491.02 744.746 491.357 745.062 491.479 745.082C491.6 745.102 491.728 745.253 491.763 745.419C491.798 745.585 491.936 745.738 492.07 745.76C492.204 745.781 492.495 746.028 492.715 746.307C492.936 746.586 493.416 747.117 493.783 747.487C494.15 747.856 494.863 748.576 495.368 749.085C495.872 749.594 496.485 750.26 496.729 750.565C496.973 750.871 497.182 751.059 497.194 750.983C497.207 750.907 497.407 751.09 497.64 751.388C497.873 751.687 498.268 752.081 498.517 752.265C498.766 752.449 499.021 752.717 499.083 752.86C499.145 753.004 499.3 753.138 499.428 753.159C499.556 753.18 499.756 753.387 499.872 753.619C499.988 753.851 500.192 754.059 500.325 754.08C500.458 754.102 500.553 754.204 500.536 754.308C500.52 754.413 500.597 754.512 500.708 754.53C500.82 754.548 501.012 754.689 501.136 754.842C501.645 755.472 501.857 755.687 501.998 755.715C502.08 755.731 502.46 756.129 502.844 756.6C503.227 757.071 503.741 757.61 503.987 757.798C504.232 757.985 504.731 758.514 505.095 758.974C505.459 759.434 505.86 759.826 505.986 759.847C506.112 759.867 506.343 760.061 506.499 760.277C506.906 760.841 508.028 761.964 508.049 761.83C508.059 761.767 508.243 761.98 508.458 762.302C508.672 762.625 508.856 762.839 508.866 762.777C508.876 762.716 509.118 762.961 509.403 763.321C509.689 763.681 510.031 763.994 510.164 764.015C510.297 764.037 510.392 764.139 510.375 764.243C510.358 764.347 510.472 764.453 510.628 764.478C510.784 764.504 510.898 764.609 510.881 764.713C510.864 764.817 510.978 764.923 511.134 764.948C511.29 764.973 511.403 765.082 511.386 765.189C511.368 765.296 511.494 765.465 511.665 765.564C511.835 765.663 512.155 765.974 512.375 766.255C512.595 766.536 512.874 766.782 512.994 766.801C513.113 766.821 513.236 766.955 513.267 767.1C513.297 767.244 513.856 767.866 514.509 768.481C515.161 769.096 515.775 769.735 515.873 769.901C515.971 770.067 516.134 770.168 516.235 770.126C516.336 770.084 516.407 770.127 516.391 770.224C516.376 770.32 516.685 770.702 517.078 771.074C517.471 771.445 517.974 771.975 518.195 772.251C518.416 772.527 518.65 772.761 518.714 772.772C518.779 772.782 519.157 773.148 519.554 773.585C519.952 774.022 520.384 774.397 520.514 774.419C520.644 774.441 520.736 774.544 520.719 774.648C520.702 774.752 520.807 774.856 520.952 774.88C521.097 774.903 521.24 775.038 521.269 775.18C521.299 775.322 521.654 775.751 522.057 776.133C522.461 776.514 522.81 776.895 522.832 776.979C522.854 777.062 522.956 777.144 523.059 777.161C523.161 777.178 523.356 777.344 523.49 777.531C523.625 777.717 523.836 777.853 523.961 777.833C524.222 777.79 532.489 726.884 536.423 701.103C537.702 692.717 539.859 678.698 541.215 669.95C542.571 661.202 543.888 652.463 544.14 650.529C544.393 648.595 546.526 634.921 548.88 620.143C551.235 605.366 553.206 592.671 553.26 591.932C553.471 589.07 553.567 588.281 554.496 581.845C555.675 573.677 555.788 572.461 555.595 569.989C555.545 569.341 555.497 568.591 555.488 568.322C555.479 568.054 555.44 567.698 555.4 567.532C555.361 567.365 555.325 567.098 555.321 566.937C555.309 566.434 554.735 562.701 554.563 562.004C554.473 561.639 554.42 561.211 554.445 561.052C554.471 560.894 554.39 560.382 554.265 559.914C553.705 557.809 553.554 557.141 553.643 557.155C553.696 557.164 553.597 556.733 553.424 556.198C553.25 555.663 552.862 554.399 552.561 553.39C552.259 552.381 551.936 551.478 551.842 551.384C551.731 551.275 551.738 551.223 551.86 551.239C551.98 551.255 551.986 551.201 551.876 551.093C551.78 550.999 551.536 550.393 551.334 549.747C551.132 549.101 550.896 548.56 550.809 548.546C550.722 548.532 550.665 548.436 550.681 548.334C550.698 548.231 550.354 547.28 549.918 546.221C549.221 544.53 548.848 543.742 548.281 542.76C548.199 542.618 548.141 542.444 548.153 542.373C548.172 542.255 546.585 539.16 546.373 538.902C546.323 538.84 546.08 538.364 545.834 537.844C545.587 537.324 544.325 535.417 543.028 533.606C540.593 530.206 540.381 529.934 539.128 528.605C538.718 528.171 538.165 527.539 537.9 527.201C537.634 526.864 537.36 526.578 537.29 526.566C537.22 526.555 536.96 526.272 536.711 525.938C536.463 525.605 535.876 524.88 535.405 524.327C534.935 523.774 534.565 523.229 534.584 523.115C534.677 522.536 527.594 517.3 523.755 515.11C519.017 512.407 515.572 510.935 510.784 509.567C507.957 508.76 500.427 507.544 497.646 507.444Z" fill="#FF7072"/>
</g>
<path d="M535 349.5C507.938 349.5 485.206 326.914 494.49 301.495C495.563 298.556 496.736 295.65 498.007 292.783C505.924 274.93 517.489 258.945 531.954 245.864C546.42 232.784 563.462 222.899 581.977 216.85C600.491 210.802 620.066 208.725 639.432 210.754C658.798 212.783 677.523 218.872 694.394 228.628C711.265 238.384 725.905 251.588 737.367 267.384C748.828 283.181 756.855 301.219 760.927 320.328C761.576 323.376 762.123 326.44 762.566 329.515C766.434 356.328 739.499 373.755 712.997 368.141L630.022 350.564C626.683 349.857 623.28 349.5 619.867 349.5L535 349.5Z" fill="black"/>
<path d="M229 348.5C256.062 348.5 278.794 325.914 269.51 300.495C268.437 297.556 267.264 294.65 265.993 291.783C258.076 273.93 246.511 257.945 232.046 244.864C217.58 231.784 200.538 221.899 182.023 215.85C163.509 209.802 143.934 207.725 124.568 209.754C105.202 211.783 86.4773 217.872 69.6063 227.628C52.7353 237.384 38.0947 250.588 26.6333 266.384C15.1718 282.181 7.1451 300.219 3.0733 319.328C2.42386 322.376 1.87733 325.44 1.43374 328.515C-2.43352 355.328 24.501 372.755 51.0026 367.141L133.978 349.564C137.317 348.857 140.72 348.5 144.133 348.5L229 348.5Z" fill="black"/>
<path d="M581.263 416.079L585.399 582.146C585.737 595.723 604.821 598.379 608.854 585.411L657.592 428.683C662.86 411.744 648.564 395.14 631.03 397.835L591.437 403.919C585.469 404.836 581.113 410.044 581.263 416.079Z" fill="black" fill-opacity="0.35"/>
<path d="M168.741 416.058L164.671 581.34C164.336 594.941 145.202 597.575 141.204 584.571L93.2704 428.659C88.0619 411.717 102.383 395.168 119.897 397.891L158.587 403.905C164.544 404.83 168.889 410.031 168.741 416.058Z" fill="black" fill-opacity="0.35"/>
<path d="M581.479 136.562L585.339 44.6343C585.854 32.3758 602.26 28.6993 607.957 39.5658L648.529 116.953C657.358 133.793 644.03 153.724 625.094 151.998L592.38 149.016C586.007 148.435 581.211 142.956 581.479 136.562Z" fill="black" fill-opacity="0.35"/>
<path d="M169.521 136.562L165.661 44.6343C165.146 32.3758 148.74 28.6993 143.043 39.5658L102.471 116.953C93.6423 133.793 106.97 153.724 125.906 151.998L158.62 149.016C164.993 148.435 169.789 142.956 169.521 136.562Z" fill="black" fill-opacity="0.35"/>
</svg>
